<?xml version="1.0" encoding="UTF-8"?><svg id="Layer_2" xmlns="http://www.w3.org/2000/svg" viewBox="0 0 93.3 50.65"><defs><style>.cls-1{fill:#020202;}.cls-2{fill:#eb6a29;}.cls-3{fill:#fff;}</style></defs><g id="Layer_1-2"><g><path class="cls-3" d="M21.54,26.92c-.12-.39-.09-.42,.31-.43,.91,0,1.81,0,2.72,0,1.23-.01,.99,.16,1.26-1,.44-1.87,.86-3.75,1.29-5.62,.13-.59,.1-.62-.49-.63-.81,0-1.62-.01-2.43,0-.29,0-.44-.09-.53-.38-.63-1.98-1.28-3.95-1.91-5.92-.16-.5-.13-.52,.43-.53,1.15,0,2.3,0,3.45,0h0c.38,0,.75,0,1.13,0,.79,0,1.59,0,2.38,0,.51,0,.53-.04,.55-.56,0-.23,0-.45,.01-.68,.07-2.67-.17-5.31-.73-7.93-.15-.68-.18-.7-.87-.61-.09,.01-.19,.03-.28,.05-1.53,.24-3.03,.62-4.5,1.13-5.36,1.85-9.92,4.89-13.59,9.24-3.63,4.29-5.94,9.2-6.95,14.72-.42,2.29-.59,4.6-.46,6.93,.18,3.15,.77,6.21,1.87,9.17,.48,1.29,1.03,2.55,1.71,3.75,.25,.43,.3,.44,.71,.26,1.86-.84,3.62-1.86,5.3-3.03,2-1.4,3.82-3.01,5.51-4.77,1.67-1.73,3.16-3.6,4.51-5.59,.16-.24,.29-.48,.35-.77,.15-.68,.29-1.37,.47-2.04,.12-.43,.06-.81-.08-1.21-.4-1.18-.78-2.36-1.16-3.55Zm-13.4,7.09c-.17,.89-.35,1.77-.5,2.66-.35,2.06-.54,4.14-.61,6.23,0,.15,.02,.3-.07,.48-.17-.09-.18-.27-.22-.41-.52-1.82-.79-3.68-.92-5.56-.1-1.43-.11-2.86,0-4.29,.02-.28,0-.57,.17-.88,.68,.45,1.29,.93,2.01,1.22,.26,.11,.18,.33,.14,.54Zm3.88-.6c-.44-.07-7.58-3.6-8.12-4.03,.68-.15,1.28-.08,1.88-.09,.52,0,.54,0,.63-.5,.38-1.97,.99-3.87,1.71-5.73,0-.02,.02-.03,.02-.05q.23-.57,.72-.19c.6,.46,1.25,.83,1.97,1.09,.4,.15,.41,.17,.25,.58-.6,1.49-1.13,3-1.61,4.52-.1,.32-.27,.66-.24,.98,.04,.35,.5,.41,.76,.61,.9,.67,1.58,1.5,1.99,2.55,.03,.08,.07,.17,.03,.27Zm3.96-17.26c-1,1.4-1.96,2.81-2.84,4.29-.06,.1-.11,.2-.18,.29-.17,.24-.14,.44,.09,.64,.57,.48,.97,1.1,1.31,1.76,.09,.18,.22,.35,.13,.68-2.73-1.3-5.38-2.65-8.12-4.03,.33-.15,.56-.17,.81-.17,.64,0,1.28-.04,1.92,.09,.44,.09,.71-.03,.95-.45,.92-1.6,2.01-3.1,3.21-4.51,.09-.1,.17-.2,.26-.3,.41-.46,.41-.46,.87-.05,.46,.42,.95,.8,1.48,1.14,.39,.25,.4,.26,.13,.63Zm-3.39-4.27c.5-.16,.97-.16,1.45-.14,.49,.02,.98,.06,1.46,.14,.31,.05,.53-.03,.76-.24,1.14-1.05,2.36-2,3.65-2.85,1.59-1.05,3.25-1.99,5.03-2.69,.25-.1,.49-.19,.81-.2-1.13,.93-2.22,1.83-3.25,2.8-1.3,1.21-2.51,2.5-3.66,3.85-.3,.35-.3,.37,.07,.67,.76,.62,1.36,1.36,1.74,2.27,.06,.14,.15,.26,.12,.42-.46-.07-7.54-3.55-8.17-4.03Z"/><path class="cls-3" d="M21.45,40.88c-.73-.03-.73-.03-.59-.77,.04-.2,.13-.4,.04-.75-1.82,2.1-3.68,4.03-5.7,5.8,2.5-.96,4.69-2.41,6.73-4.14-.18-.18-.34-.13-.48-.13Z"/><path class="cls-3" d="M24.56,14.48c-.24,0-.36,.13-.29,.36,.22,.7,.45,1.4,.68,2.1,.06,.18,.21,.26,.39,.26,.17,0,.34,0,.51,0,1.07,0,2.15,0,3.22,0,.43,0,.46,.05,.38,.46-.12,.57-.26,1.14-.39,1.71-.45,1.98-.91,3.97-1.36,5.95-.13,.57-.1,.61,.49,.61,1.07,0,2.15,0,3.22,0,.49,0,.49-.01,.6-.48,.48-2.11,.96-4.23,1.45-6.34,.11-.5,.22-.99,.34-1.49,.11-.44,.14-.47,.62-.48,.13,0,.26,0,.4,0,1.28,0,2.56,0,3.85,0,.51,0,.52-.01,.63-.52,.13-.59,.27-1.18,.39-1.77,.09-.42,.06-.44-.37-.46-.17,0-.34,0-.51,0-2.28,0-4.56,0-6.84,0v.07c-2.38,0-4.75,0-7.13,0-.09,0-.19,0-.28,0Z"/><path class="cls-3" d="M56.34,16.5c.17,.46,.16,.91,.05,1.38-.58,2.48-1.15,4.96-1.71,7.44-.11,.46-.05,.54,.43,.54,1.09,0,2.19,.04,3.28-.03,.53-.03,.53-.03,.65-.55,.47-2.04,.93-4.08,1.4-6.12,.31-1.38,.64-2.76,.95-4.13,.14-.62,.1-.67-.55-.68-.75,0-1.51,0-2.26,0v.02c-.83,0-1.66,0-2.49,0-.36,0-.4,.07-.3,.41,.18,.58,.36,1.15,.56,1.72Z"/><path class="cls-3" d="M62.68,16.59c.15,.41,.14,.8,.05,1.22-.58,2.5-1.15,5-1.71,7.5-.11,.47-.07,.51,.43,.51,.94,0,1.89,.01,2.83,0,1.12-.01,.93,.16,1.19-.96,.56-2.42,1.11-4.85,1.65-7.28,.06-.29,.19-.42,.5-.41,1.08,.01,2.15,0,3.23,0,.4,0,.45,.07,.37,.49-.09,.44-.2,.88-.3,1.32-.11,.54-.12,.55-.66,.56-.89,0-1.77,0-2.66,0-.47,0-.49,.05-.3,.49,.75,1.77,1.51,3.54,2.25,5.32,.14,.33,.31,.46,.67,.45,1.19-.02,2.38,0,3.57,0,.62,0,.65-.03,.41-.59-.38-.92-.79-1.84-1.18-2.76-.23-.54-.22-.54,.28-.82,.91-.51,1.57-1.23,1.79-2.28,.18-.83,.37-1.66,.56-2.48,.35-1.58-.82-2.57-2.02-2.56-1.83,.02-3.66,0-5.49,0v.02c-.23,0-.45,0-.68,0-1.62,0-3.25,0-4.87,0-.57,0-.61,.05-.45,.58,.17,.56,.34,1.12,.54,1.67Z"/><path class="cls-3" d="M52.79,24.8c.76-3.31,1.51-6.62,2.27-9.93,.1-.45,.07-.49-.39-.5-1.13,0-2.26,0-3.4,0-.43,0-.44,.01-.55,.47-.26,1.12-.52,2.24-.77,3.36-.12,.51-.13,.53-.62,.53-1.21,0-2.42,0-3.62,0-.51,0-.53-.03-.42-.51,.24-1.05,.48-2.1,.71-3.14,.15-.66,.14-.68-.52-.68-.74,0-1.47,0-2.21,0h0c-.79,0-1.59,0-2.38,0-.56,0-.6,.07-.45,.59,.19,.63,.4,1.26,.61,1.89,.08,.24,.08,.48,.02,.72-.28,1.21-.56,2.43-.83,3.64-.31,1.34-.62,2.68-.91,4.03-.14,.62-.1,.65,.52,.65,1.02,0,2.04,0,3.06,0,.63,0,.62,0,.77-.64,.23-1.01,.46-2.02,.69-3.03,.12-.51,.13-.51,.63-.51,1.21,0,2.42-.01,3.62-.02,.49,0,.52,.02,.41,.51-.23,1.01-.46,2.02-.68,3.04-.12,.57-.09,.6,.51,.6,.87,0,1.74,.01,2.6,0,.35,0,.76,.14,1.04-.1,.26-.22,.2-.63,.28-.96Z"/><path class="cls-3" d="M88.43,14.27c-3.21,0-6.42,0-9.62,0-.51,0-1.02,.01-1.53,.03-.54,.01-.57,.06-.41,.55,.16,.48,.3,.97,.48,1.45,.2,.51,.21,1,.08,1.54-.58,2.44-1.13,4.89-1.68,7.33-.14,.61-.12,.63,.52,.64,.11,0,.23,0,.34,0h4.36v-.03c1.57,0,3.13,.01,4.7,0,1.93-.02,3.65-1.36,4.04-3.12,.35-1.58,.72-3.16,1.08-4.74,.09-.4,.19-.81,.2-1.23,.02-.77-.26-1.4-.86-1.88-.49-.4-1.07-.54-1.69-.54Zm-2.27,4.9c-.24,1.07-.49,2.13-.74,3.2-.13,.55-.13,.55-.72,.56-.59,0-1.17,0-1.76,0v.03c-.62,0-1.25,0-1.87,0-.43,0-.46-.03-.37-.47,.25-1.16,.52-2.32,.78-3.48,.11-.5,.23-.99,.34-1.49,.06-.25,.18-.4,.46-.4,1.32,0,2.64,0,3.96-.02,.25,0,.34,.11,.29,.35-.13,.57-.25,1.14-.38,1.71Z"/><path class="cls-2" d="M88.69,12.21c-1.87,0-3.74,.01-5.6,.02-3.51,.01-7.02,.01-10.53,.03-3.43,.02-6.87-.01-10.3,.03-3.85,.04-7.7,.01-11.55,.05-4.64,.04-9.28,.02-13.93,.03-.53,0-1.06,0-1.59,0-.41,0-.43-.03-.52-.44-.06-.28-.11-.55-.16-.83-.63-3.46-1.82-6.73-3.47-9.83-.57-1.06-1.24-1.39-2.42-1.2-.76,.12-1.52,.26-2.28,.43-2.83,.64-5.54,1.62-8.12,2.95-3.59,1.85-6.74,4.28-9.46,7.27-2.48,2.74-4.46,5.79-5.93,9.18-1.23,2.82-2.06,5.75-2.49,8.79C.1,30.28,0,31.9,0,33.53c.02,3.05,.43,6.05,1.27,8.99,.7,2.44,1.64,4.78,2.87,7,.5,.9,1.16,1.22,2.15,1.1,.75-.09,1.49-.24,2.23-.4,6.38-1.39,11.89-4.38,16.55-8.95,.31-.3,.61-.44,1.04-.44,2,.02,4,0,6,0,1.45,0,2.75-.42,3.86-1.38,.31-.26,.34-.27,.61,0,.96,.98,2.14,1.35,3.49,1.34,2.02-.02,4.04,.01,6.06-.03,1.07-.02,2.04-.31,2.94-.88,1.29-.81,2.11-1.97,2.5-3.44,.05-.18,.02-.42,.26-.5,.15,.19,.17,.4,.21,.6,.23,1.24,.47,2.48,.7,3.73,.09,.46,.11,.49,.59,.49,2.02,0,4.04-.01,6.06-.01,.31,0,.53-.09,.7-.37,.28-.49,.59-.96,.9-1.44,.09-.14,.13-.32,.36-.36,.15,.15,.15,.37,.19,.56,.07,.37,.12,.74,.19,1.12,.09,.46,.12,.49,.59,.49,2.04,0,4.08-.03,6.11-.03,.33,0,.5-.15,.67-.41,.67-1.07,1.37-2.12,2.06-3.18,.11-.16,.19-.36,.4-.44,.14,.18,.04,.35,0,.5-.22,1.01-.46,2.02-.67,3.04-.1,.46-.07,.49,.4,.49,1.19,0,2.38,0,3.57,0,1.15,0,2.3-.02,3.45-.03,.56,0,.56,0,.69-.53,.11-.44,.2-.88,.32-1.32,.04-.14,.01-.34,.19-.38,.19-.04,.24,.16,.31,.28,.32,.51,.64,1.02,.94,1.55,.17,.3,.4,.41,.74,.41,1.89-.03,3.77,.04,5.66-.05,.55-.03,.55-.02,.66-.55,.29-1.29,.58-2.58,.87-3.86,.7-3.05,1.4-6.1,2.09-9.16,.16-.72,.16-.72-.5-.89-.03-.18,.12-.26,.21-.37,.71-.76,1.21-1.64,1.44-2.65,.42-1.84,.88-3.67,1.25-5.52,.33-1.65-.07-3.11-1.34-4.28-.89-.82-1.98-1.15-3.17-1.15Zm-26.1,2.14c1.62,0,3.25,0,4.87,0,.23,0,.45,0,.68,0v-.02c1.83,0,3.66,.01,5.49,0,1.2-.01,2.38,.98,2.02,2.56-.19,.83-.38,1.65-.56,2.48-.23,1.05-.88,1.77-1.79,2.28-.5,.28-.51,.27-.28,.82,.39,.92,.79,1.84,1.18,2.76,.23,.56,.21,.59-.41,.59-1.19,0-2.38-.01-3.57,0-.36,0-.53-.13-.67-.45-.74-1.78-1.5-3.54-2.25-5.32-.19-.44-.17-.49,.3-.49,.89-.01,1.77,0,2.66,0,.54,0,.55-.02,.66-.56,.09-.44,.21-.88,.3-1.32,.08-.42,.03-.49-.37-.49-1.08,0-2.15,0-3.23,0-.31,0-.43,.13-.5,.41-.54,2.43-1.08,4.86-1.65,7.28-.26,1.11-.08,.95-1.19,.96-.94,0-1.89,0-2.83,0-.51,0-.54-.05-.43-.51,.57-2.5,1.13-5,1.71-7.5,.1-.42,.1-.81-.05-1.22-.2-.55-.37-1.11-.54-1.67-.16-.52-.12-.58,.45-.58Zm-6.51,.03c.83-.01,1.66,0,2.49,0v-.02c.75,0,1.51,0,2.26,0,.65,0,.69,.06,.55,.68-.31,1.38-.64,2.76-.95,4.13-.47,2.04-.93,4.08-1.4,6.12-.12,.52-.13,.52-.65,.55-1.09,.07-2.19,.02-3.28,.03-.48,0-.53-.07-.43-.54,.57-2.48,1.13-4.96,1.71-7.44,.11-.48,.12-.92-.05-1.38-.21-.57-.39-1.14-.56-1.72-.1-.34-.06-.4,.3-.41Zm-24.1,.1v-.07c2.28,0,4.56,0,6.84,0,.17,0,.34,0,.51,0,.44,.02,.46,.04,.37,.46-.13,.59-.26,1.18-.39,1.77-.11,.5-.12,.51-.63,.52-1.28,0-2.56,0-3.85,0-.13,0-.26,0-.4,0-.47,.01-.51,.04-.62,.48-.12,.49-.23,.99-.34,1.49-.48,2.11-.96,4.23-1.45,6.34-.11,.46-.11,.47-.6,.48-1.07,0-2.15,0-3.22,0-.59,0-.62-.05-.49-.61,.45-1.98,.91-3.97,1.36-5.95,.13-.57,.27-1.14,.39-1.71,.09-.41,.06-.45-.38-.46-1.07,0-2.15,0-3.22,0-.17,0-.34,0-.51,0-.19,0-.33-.08-.39-.26-.23-.7-.46-1.4-.68-2.1-.07-.24,.05-.36,.29-.36,.09,0,.19,0,.28,0,2.38,0,4.75,0,7.13,0ZM15.2,45.15c2.02-1.77,3.88-3.7,5.7-5.8,.09,.35,0,.55-.04,.75-.14,.74-.14,.74,.59,.77,.14,0,.3-.04,.48,.13-2.04,1.73-4.23,3.18-6.73,4.14Zm7.58-13.47c-.19,.67-.32,1.36-.47,2.04-.06,.28-.19,.53-.35,.77-1.35,1.99-2.84,3.86-4.51,5.59-1.69,1.75-3.51,3.37-5.51,4.77-1.67,1.17-3.43,2.19-5.3,3.03-.41,.18-.46,.17-.71-.26-.68-1.2-1.23-2.46-1.71-3.75-1.1-2.96-1.7-6.02-1.87-9.17-.13-2.33,.04-4.64,.46-6.93,1.02-5.52,3.32-10.43,6.95-14.72,3.67-4.34,8.23-7.38,13.59-9.24,1.46-.51,2.96-.88,4.5-1.13,.09-.01,.19-.03,.28-.05,.69-.09,.72-.07,.87,.61,.56,2.61,.8,5.26,.73,7.93,0,.23,0,.45-.01,.68-.02,.52-.05,.55-.55,.56-.79,0-1.59,0-2.38,0-.38,0-.75,0-1.13,0h0c-1.15,0-2.3,0-3.45,0-.56,0-.59,.03-.43,.53,.63,1.98,1.28,3.95,1.91,5.92,.09,.28,.23,.38,.53,.38,.81-.02,1.62,0,2.43,0,.58,0,.62,.04,.49,.63-.42,1.88-.85,3.75-1.29,5.62-.27,1.16-.03,.99-1.26,1-.91,0-1.81,0-2.72,0-.41,0-.44,.04-.31,.43,.38,1.19,.76,2.37,1.16,3.55,.14,.4,.2,.79,.08,1.21Zm13.85-.24c-.35,1.52-.69,3.05-1.05,4.57-.38,1.57-1.75,2.71-3.37,2.8-.6,.03-1.21,.02-1.81,.03-2.15,0-4.3,0-6.45,0-.17,0-.34,0-.51,0-.39-.02-.46-.1-.37-.5,.22-.99,.45-1.98,.68-2.97,.29-1.25,.56-2.5,.86-3.74,.11-.44,.07-.85-.09-1.27-.16-.42-.29-.86-.42-1.29-.14-.46-.09-.53,.4-.53,1.7,0,3.4,0,5.09,0v-.02c1.45,0,2.91,0,4.36,0,.45,0,.9-.02,1.34,.13,.91,.31,1.41,.99,1.43,1.96,0,.28-.03,.56-.09,.84Zm13.69,.12c-.33,1.37-.63,2.75-.94,4.13-.34,1.51-1.22,2.53-2.73,2.95-.62,.17-1.27,.18-1.91,.14-.09,0-.19-.02-.28-.04v.08c-1.51,0-3.01,0-4.52,0-.42,0-.82-.07-1.23-.17-.92-.23-1.48-1.19-1.46-1.93,.02-.57,.13-1.12,.27-1.67,.34-1.37,.59-2.76,.97-4.12,.35-1.22,1.74-2.26,2.89-2.4,.98-.12,1.96-.06,2.94-.08,1.17-.03,2.34,0,3.51-.01,.4,0,.79,.07,1.17,.18,.86,.27,1.38,.94,1.42,1.83,.02,.38-.01,.75-.1,1.12Zm1.14-5.7c-.87,.02-1.74,0-2.6,0-.6,0-.64-.03-.51-.6,.22-1.01,.46-2.02,.68-3.04,.11-.49,.08-.52-.41-.51-1.21,0-2.42,.01-3.62,.02-.5,0-.51,0-.63,.51-.24,1.01-.46,2.02-.69,3.03-.14,.64-.14,.64-.77,.64-1.02,0-2.04,0-3.06,0-.62,0-.66-.03-.52-.65,.29-1.35,.61-2.69,.91-4.03,.28-1.21,.55-2.43,.83-3.64,.06-.25,.06-.48-.02-.72-.21-.63-.42-1.25-.61-1.89-.16-.52-.11-.58,.45-.59,.79-.01,1.59,0,2.38,0h0c.74,0,1.47,0,2.21,0,.66,0,.67,.02,.52,.68-.24,1.05-.48,2.1-.71,3.14-.11,.48-.09,.51,.42,.51,1.21,0,2.42,0,3.62,0,.5,0,.51-.02,.62-.53,.26-1.12,.51-2.24,.77-3.36,.11-.46,.12-.47,.55-.47,1.13,0,2.26,0,3.4,0,.46,0,.49,.05,.39,.5-.75,3.31-1.5,6.62-2.27,9.93-.08,.33-.01,.74-.28,.96-.28,.24-.69,.09-1.04,.1Zm36.59,3.05c-.5,2.17-1,4.33-1.49,6.5-.21,.94-.43,1.87-.62,2.81-.06,.29-.19,.43-.49,.43-1.08,0-2.15,.01-3.23,.04-.32,0-.46-.16-.61-.41-.9-1.48-1.8-2.96-2.71-4.44-.13-.22-.22-.6-.49-.56-.32,.04-.28,.45-.34,.7-.31,1.32-.59,2.65-.87,3.97-.02,.11-.07,.22-.08,.33-.03,.32-.22,.4-.5,.4-.68,0-1.36,0-2.04,0-.38,0-.76,0-1.13,0-.28,0-.39-.12-.33-.38,.1-.48,.2-.96,.31-1.44,.41-1.82,.82-3.64,1.25-5.45,.13-.55-.03-1.04-.2-1.54-.13-.37-.26-.73-.38-1.1-.26,.07-.33,.27-.43,.42-1.04,1.57-2.07,3.15-3.1,4.73-.93,1.44-1.87,2.88-2.78,4.33-.23,.36-.48,.53-.91,.52-1.02-.03-2.04,0-3.06,0-.53,0-.59-.03-.68-.54-.23-1.26-.44-2.52-.66-3.79-.06-.35-.13-.7-.2-1.05-.02-.09-.04-.19-.16-.2-.11,0-.16,.08-.21,.16-.37,.57-.73,1.14-1.09,1.72-.66,1.05-1.34,2.1-1.98,3.16-.25,.42-.55,.59-1.05,.57-.98-.04-1.96-.01-2.94-.01-.57,0-.62-.04-.72-.57-.56-2.94-1.13-5.88-1.69-8.82-.18-.95-.18-.95,.81-.95,.9,0,1.81-.11,2.71-.07,.57,.02,.61,.04,.69,.59,.19,1.32,.37,2.65,.55,3.97,.07,.48,.16,.96,.24,1.43,.26,.04,.32-.14,.4-.28,1.09-1.74,2.18-3.48,3.25-5.24,.21-.35,.46-.5,.87-.48,.85,.03,1.7,0,2.55,0,.49,0,.54,.05,.62,.53,.3,1.71,.6,3.41,.9,5.12,.02,.11,0,.25,.13,.29,.17,.05,.23-.09,.29-.2,.58-.97,1.15-1.95,1.73-2.92,.47-.79,.95-1.59,1.41-2.39,.19-.33,.45-.45,.83-.45,2.77,0,5.55,0,8.32-.03,.44,0,.69,.15,.9,.51,.87,1.5,1.75,2.99,2.63,4.49,.14,.24,.29,.48,.48,.78,.27-.46,.32-.92,.42-1.36,.31-1.34,.62-2.68,.91-4.02,.06-.27,.19-.37,.46-.39,1-.07,2-.08,3-.06,.55,0,.63,.12,.51,.65Zm2.72-10.99c-.36,1.58-.72,3.16-1.08,4.74-.39,1.76-2.11,3.1-4.04,3.12-1.57,.01-3.13,0-4.7,0v.03h-4.36c-.11,0-.23,0-.34,0-.64-.01-.66-.03-.52-.64,.56-2.44,1.1-4.89,1.68-7.33,.13-.54,.12-1.03-.08-1.54-.18-.47-.33-.96-.48-1.45-.16-.49-.13-.54,.41-.55,.51-.01,1.02-.03,1.53-.03,3.21,0,6.42,0,9.62,0,.62,0,1.2,.14,1.69,.54,.6,.48,.88,1.12,.86,1.88,0,.42-.11,.82-.2,1.23Z"/><path class="cls-1" d="M87.54,28.26c-1-.01-2,0-3,.06-.27,.02-.4,.12-.46,.39-.29,1.34-.6,2.68-.91,4.02-.1,.44-.16,.9-.42,1.36-.19-.3-.34-.54-.48-.78-.88-1.49-1.77-2.99-2.63-4.49-.21-.37-.46-.52-.9-.51-2.77,.03-5.55,.03-8.32,.03-.39,0-.64,.12-.83,.45-.46,.8-.94,1.59-1.41,2.39-.58,.97-1.15,1.95-1.73,2.92-.07,.11-.13,.25-.29,.2-.13-.04-.11-.18-.13-.29-.3-1.71-.6-3.41-.9-5.12-.08-.48-.14-.53-.62-.53-.85,0-1.7,.02-2.55,0-.41-.01-.66,.14-.87,.48-1.07,1.75-2.16,3.49-3.25,5.24-.08,.13-.14,.32-.4,.28-.08-.47-.17-.95-.24-1.43-.19-1.32-.36-2.65-.55-3.97-.08-.55-.13-.56-.69-.59-.91-.04-1.81,.07-2.71,.07-.98,0-.99,0-.81,.95,.56,2.94,1.13,5.88,1.69,8.82,.1,.53,.15,.56,.72,.57,.98,0,1.96-.03,2.94,.01,.5,.02,.8-.15,1.05-.57,.64-1.07,1.32-2.11,1.98-3.16,.36-.57,.73-1.15,1.09-1.72,.05-.08,.09-.17,.21-.16,.12,.01,.14,.12,.16,.2,.07,.35,.14,.7,.2,1.05,.22,1.26,.43,2.53,.66,3.79,.09,.51,.15,.54,.68,.54,1.02,0,2.04-.02,3.06,0,.43,.01,.69-.16,.91-.52,.91-1.45,1.85-2.89,2.78-4.33,1.03-1.58,2.06-3.16,3.1-4.73,.1-.15,.17-.34,.43-.42,.13,.37,.26,.73,.38,1.1,.17,.5,.33,.99,.2,1.54-.43,1.81-.84,3.63-1.25,5.45-.11,.48-.21,.96-.31,1.44-.05,.26,.06,.39,.33,.38,.38-.01,.75,0,1.13,0,.68,0,1.36,0,2.04,0,.28,0,.48-.08,.5-.4,0-.11,.06-.22,.08-.33,.29-1.33,.57-2.65,.87-3.97,.06-.25,.02-.67,.34-.7,.26-.03,.35,.35,.49,.56,.91,1.47,1.82,2.95,2.71,4.44,.15,.24,.29,.41,.61,.41,1.08-.02,2.15-.03,3.23-.04,.3,0,.43-.14,.49-.43,.19-.94,.41-1.88,.62-2.81,.5-2.17,.99-4.33,1.49-6.5,.12-.53,.04-.64-.51-.65Z"/><path class="cls-1" d="M35.3,28.64c-.44-.15-.89-.13-1.34-.13-1.45,0-2.91,0-4.36,0v.02c-1.7,0-3.4,0-5.09,0-.48,0-.53,.07-.4,.53,.13,.43,.26,.87,.42,1.29,.16,.42,.19,.83,.09,1.27-.3,1.25-.58,2.5-.86,3.74-.23,.99-.46,1.98-.68,2.97-.09,.4-.03,.47,.37,.5,.17,0,.34,0,.51,0,2.15,0,4.3,0,6.45,0,.6,0,1.21,0,1.81-.03,1.62-.09,2.99-1.23,3.37-2.8,.36-1.52,.7-3.05,1.05-4.57,.06-.28,.1-.56,.09-.84-.02-.96-.52-1.64-1.43-1.96Zm-2.6,2.86c-.32,1.45-.65,2.9-.97,4.36-.07,.31-.26,.37-.54,.37-1.04,0-2.08,0-3.11,0-.53,0-.59-.08-.48-.6,.26-1.16,.53-2.31,.8-3.47,.05-.22,.11-.44,.15-.66,.05-.26,.2-.38,.47-.38,.57,.01,1.13,0,1.7,0v-.02c.55,0,1.09,0,1.64,0,.36,0,.41,.06,.33,.4Z"/><path class="cls-1" d="M49.01,28.61c-.38-.12-.76-.19-1.17-.18-1.17,.01-2.34-.01-3.51,.01-.98,.02-1.96-.03-2.94,.08-1.16,.14-2.54,1.18-2.89,2.4-.39,1.36-.63,2.75-.97,4.12-.14,.55-.25,1.09-.27,1.67-.02,.73,.54,1.69,1.46,1.93,.4,.1,.81,.17,1.23,.17,1.51,0,3.01,0,4.52,0v-.08c.09,.01,.19,.03,.28,.04,.64,.04,1.29,.03,1.91-.14,1.5-.42,2.39-1.44,2.73-2.95,.31-1.38,.61-2.76,.94-4.13,.09-.37,.12-.74,.1-1.12-.04-.89-.56-1.56-1.42-1.83Zm-2.61,3.03c-.22,.97-.44,1.94-.67,2.92-.08,.35-.15,.7-.24,1.05-.13,.53-.19,.58-.73,.59-.51,0-1.02,0-1.53,0v.02c-.51,0-1.02,0-1.53,0-.46,0-.52-.09-.43-.55,.09-.42,.2-.84,.3-1.26,.22-.95,.43-1.91,.65-2.86,.12-.49,.12-.5,.64-.5,1.02,0,2.04,0,3.05,0,.52,0,.58,.08,.46,.61Z"/><path class="cls-2" d="M15.85,15.53c-.53-.34-1.02-.71-1.48-1.14-.45-.42-.46-.41-.87,.05-.09,.1-.17,.2-.26,.3-1.2,1.41-2.29,2.9-3.21,4.51-.24,.42-.51,.54-.95,.45-.63-.13-1.28-.09-1.92-.09-.24,0-.48,.02-.81,.17,2.74,1.38,5.4,2.73,8.12,4.03,.09-.33-.04-.5-.13-.68-.33-.66-.73-1.28-1.31-1.76-.23-.2-.26-.39-.09-.64,.07-.09,.12-.19,.18-.29,.88-1.47,1.85-2.89,2.84-4.29,.26-.37,.26-.37-.13-.63Z"/><path class="cls-2" d="M10,30.6c-.27-.2-.72-.25-.76-.61-.04-.31,.13-.65,.24-.98,.48-1.53,1.02-3.04,1.61-4.52,.16-.41,.15-.43-.25-.58-.72-.26-1.37-.63-1.97-1.09q-.49-.38-.72,.19s-.02,.03-.02,.05c-.72,1.87-1.33,3.77-1.71,5.73-.1,.5-.11,.5-.63,.5-.6,0-1.2-.06-1.88,.09,.53,.43,7.68,3.96,8.12,4.03,.04-.1,0-.19-.03-.27-.41-1.05-1.09-1.88-1.99-2.55Z"/><path class="cls-2" d="M18.9,13.22c-.36-.3-.36-.32-.07-.67,1.15-1.35,2.37-2.64,3.66-3.85,1.03-.97,2.12-1.87,3.25-2.8-.32,0-.56,.1-.81,.2-1.78,.7-3.44,1.64-5.03,2.69-1.29,.85-2.51,1.8-3.65,2.85-.23,.21-.45,.29-.76,.24-.48-.07-.97-.11-1.46-.14-.48-.02-.95-.01-1.45,.14,.63,.47,7.71,3.95,8.17,4.03,.03-.16-.06-.29-.12-.42-.38-.91-.98-1.65-1.74-2.27Z"/><path class="cls-2" d="M8,33.47c-.72-.3-1.33-.77-2.01-1.22-.17,.32-.14,.61-.17,.88-.11,1.43-.1,2.86,0,4.29,.13,1.88,.4,3.74,.92,5.56,.04,.14,.05,.32,.22,.41,.09-.18,.06-.34,.07-.48,.06-2.09,.26-4.17,.61-6.23,.15-.89,.33-1.78,.5-2.66,.04-.2,.12-.43-.14-.54Z"/><path class="cls-2" d="M86.25,17.1c-1.32,0-2.64,.02-3.96,.02-.28,0-.41,.14-.46,.4-.11,.5-.22,.99-.34,1.49-.26,1.16-.53,2.32-.78,3.48-.09,.43-.06,.46,.37,.47,.62,0,1.24,0,1.87,0v-.03c.59,0,1.17,0,1.76,0,.59,0,.59,0,.72-.56,.25-1.07,.49-2.13,.74-3.2,.13-.57,.25-1.14,.38-1.71,.05-.24-.04-.35-.29-.35Z"/><path class="cls-2" d="M32.36,31.11c-.55-.01-1.09,0-1.64,0v.02c-.57,0-1.13,0-1.7,0-.27,0-.42,.11-.47,.38-.04,.22-.1,.44-.15,.66-.27,1.16-.54,2.31-.8,3.47-.12,.53-.06,.6,.48,.6,1.04,0,2.08,0,3.11,0,.28,0,.47-.06,.54-.37,.32-1.45,.65-2.9,.97-4.36,.07-.34,.03-.39-.33-.4Z"/><path class="cls-2" d="M45.94,31.03c-1.02,0-2.04,0-3.05,0-.52,0-.53,0-.64,.5-.22,.95-.43,1.91-.65,2.86-.1,.42-.21,.84-.3,1.26-.1,.46-.03,.54,.43,.55,.51,0,1.02,0,1.53,0v-.02c.51,0,1.02,0,1.53,0,.54,0,.59-.05,.73-.59,.09-.35,.16-.7,.24-1.05,.22-.97,.45-1.94,.67-2.92,.12-.53,.06-.61-.46-.61Z"/></g></g></svg>
